<?xml version="1.0" standalone="no"?>
<!DOCTYPE svg PUBLIC "-//W3C//DTD SVG 20010904//EN"
 "http://www.w3.org/TR/2001/REC-SVG-20010904/DTD/svg10.dtd">
<svg version="1.0" xmlns="http://www.w3.org/2000/svg"
 width="161.000000pt" height="154.000000pt" viewBox="0 0 161.000000 154.000000"
 preserveAspectRatio="xMidYMid meet">

<g transform="translate(0.000000,154.000000) scale(0.100000,-0.100000)"
fill="#000000" stroke="none">
<path d="M708 1385 c-20 -47 -32 -85 -27 -85 5 0 15 11 21 25 16 35 61 34 84
0 30 -46 27 -17 -6 65 -18 44 -33 80 -35 80 -1 0 -18 -38 -37 -85z m56 -2 c6
-20 4 -23 -18 -23 -30 0 -29 -2 -15 40 12 34 19 30 33 -17z"/>
<path d="M450 1391 c0 -54 -3 -70 -16 -75 -9 -3 -20 -4 -25 0 -5 3 -9 0 -9 -5
0 -15 43 -14 58 1 15 15 16 148 2 148 -6 0 -10 -30 -10 -69z"/>
<path d="M521 1443 c-11 -10 -24 -32 -27 -50 -5 -27 -1 -37 24 -63 78 -77 189
18 121 104 -25 32 -85 36 -118 9z m97 -9 c32 -22 30 -76 -5 -103 -30 -24 -58
-20 -85 11 -24 27 -23 57 4 85 25 27 54 29 86 7z"/>
<path d="M851 1434 c-61 -78 34 -176 110 -115 13 11 20 23 16 27 -4 5 -11 4
-15 -2 -4 -6 -17 -16 -29 -23 -68 -35 -119 81 -51 118 23 13 30 13 55 1 47
-24 49 -24 29 -1 -28 32 -88 29 -115 -5z"/>
<path d="M1010 1380 c0 -47 4 -80 10 -80 6 0 10 17 10 37 l0 38 25 -38 c14
-20 31 -37 37 -37 6 0 3 10 -6 23 -39 53 -40 63 -11 101 15 20 23 36 17 36 -6
0 -22 -15 -36 -32 l-26 -33 0 33 c0 17 -4 32 -10 32 -6 0 -10 -33 -10 -80z"/>
<path d="M1132 1448 c-26 -26 -13 -49 38 -70 51 -21 60 -34 38 -56 -17 -17
-48 -15 -70 5 -20 18 -25 4 -6 -15 17 -17 74 -15 93 4 25 25 14 47 -35 71 -29
14 -45 28 -45 40 0 21 41 31 58 14 17 -17 31 -13 17 4 -15 18 -71 20 -88 3z"/>
<path d="M490 291 c14 -4 25 -13 25 -21 0 -8 -11 -17 -25 -21 -14 -4 -18 -7
-9 -8 9 -1 24 -11 33 -23 l17 -23 -11 23 c-9 17 -8 27 1 38 15 19 -5 44 -35
43 -19 -1 -18 -2 4 -8z"/>
<path d="M550 250 l0 -50 33 1 c30 2 30 2 5 6 -35 5 -39 40 -5 46 l22 4 -22 2
c-33 2 -29 29 5 34 25 4 25 4 -5 6 l-33 1 0 -50z"/>
<path d="M636 291 c-3 -4 6 -6 19 -3 14 2 25 6 25 8 0 8 -39 4 -44 -5z"/>
<path d="M712 293 c12 -3 18 -18 21 -51 l3 -47 2 47 c2 35 6 48 20 51 9 3 -1
5 -23 5 -22 0 -32 -2 -23 -5z"/>
<path d="M792 248 c-12 -29 -16 -45 -8 -35 7 9 21 17 31 17 10 0 24 -8 31 -17
8 -10 5 4 -7 32 -11 27 -22 51 -23 53 -2 1 -13 -21 -24 -50z m38 0 c0 -5 -7
-8 -15 -8 -17 0 -18 2 -9 25 5 13 8 14 15 3 5 -7 9 -16 9 -20z"/>
<path d="M940 260 c-4 -34 -10 -46 -24 -48 -10 -2 -23 2 -28 10 -8 10 -9 10
-5 -2 5 -20 41 -24 56 -6 7 8 11 32 9 53 l-4 38 -4 -45z"/>
<path d="M981 248 c1 -29 4 -43 6 -30 6 28 18 28 37 0 9 -12 16 -18 16 -13 -1
16 -26 45 -39 45 -6 0 -11 9 -11 20 0 29 37 27 43 -2 5 -20 5 -20 4 2 -2 19
-8 26 -29 28 -28 3 -28 3 -27 -50z"/>
<path d="M1072 248 c-12 -29 -16 -45 -8 -35 7 9 21 17 31 17 10 0 24 -8 31
-17 8 -10 5 4 -7 32 -11 27 -22 51 -23 53 -2 1 -13 -21 -24 -50z m38 0 c0 -5
-7 -8 -15 -8 -17 0 -18 2 -9 25 5 13 8 14 15 3 5 -7 9 -16 9 -20z"/>
<path d="M1160 294 c0 -8 60 -94 65 -94 3 0 4 24 3 53 l-1 52 -4 -44 -4 -45
-25 42 c-23 39 -34 50 -34 36z"/>
<path d="M1262 293 c12 -3 18 -18 21 -51 l3 -47 2 47 c2 35 6 48 20 51 9 3 -1
5 -23 5 -22 0 -32 -2 -23 -5z"/>
<path d="M630 266 c0 -2 11 -11 25 -20 14 -9 25 -13 25 -8 0 5 -11 14 -25 20
-14 6 -25 10 -25 8z"/>
<path d="M650 210 c-23 -7 -23 -8 -3 -9 12 -1 25 4 28 9 3 6 5 10 3 9 -2 -1
-14 -5 -28 -9z"/>
</g>
</svg>
